<svg xmlns="http://www.w3.org/2000/svg" viewBox="0 0 1500 900" role="img" aria-labelledby="t d"><title id="t">Cache Compass 0.9.15 Search Only screen</title><desc id="d">Desktop render based on the current Cache Compass 0.9.15 WinForms source.</desc><rect width="1500" height="900" fill="#091013"/><rect x="28" y="24" width="1444" height="852" rx="18" fill="#111b1e" stroke="#304146" stroke-width="2"/><rect x="28" y="24" width="1444" height="145" rx="18" fill="#030303"/><text x="78" y="83" fill="#e8ebec" font-family="Georgia" font-size="42">CACHE COMPASS</text><text x="80" y="118" fill="#5cbbb0" font-family="Segoe UI,Arial" font-size="17">Inventory management for Second Life®</text><rect x="1120" y="63" width="270" height="52" rx="10" fill="#241b0c" stroke="#c4a261"/><text x="1255" y="96" fill="#c4a261" font-family="Segoe UI,Arial" font-size="16" text-anchor="middle" font-weight="700">FIRESTORM DETECTED ✓</text><g font-family="Segoe UI,Arial" font-size="14" font-weight="700"><rect x="58" y="180" width="190" height="58" rx="9" fill="#172328" stroke="#405358"/><text x="153" y="215" text-anchor="middle" fill="#e8ebec">WELCOME</text><rect x="258" y="180" width="250" height="58" rx="9" fill="#172328" stroke="#405358"/><text x="383" y="215" text-anchor="middle" fill="#e8ebec">PROTECTED FOLDERS</text><rect x="518" y="180" width="210" height="58" rx="9" fill="#3b3321" stroke="#c4a261" stroke-width="2"/><text x="623" y="215" text-anchor="middle" fill="#efd196">SEARCH ONLY</text><rect x="738" y="180" width="190" height="58" rx="9" fill="#172328" stroke="#405358"/><text x="833" y="215" text-anchor="middle" fill="#e8ebec">CLEANUP</text><rect x="938" y="180" width="190" height="58" rx="9" fill="#172328" stroke="#405358"/><text x="1033" y="215" text-anchor="middle" fill="#e8ebec">REVIEW</text></g><rect x="58" y="264" width="1384" height="88" fill="#111b1e" stroke="#304146"/><text x="84" y="301" fill="#c4a261" font-family="Segoe UI,Arial" font-size="15" font-weight="700">SEARCH ONLY</text><rect x="210" y="281" width="620" height="42" fill="#091013" stroke="#405358"/><text x="228" y="308" fill="#8f9da1" font-family="Segoe UI,Arial" font-size="15">reborn shirt</text><rect x="850" y="281" width="225" height="42" rx="5" fill="#172328" stroke="#405358"/><text x="962" y="308" fill="#e8ebec" font-family="Segoe UI,Arial" font-size="14" text-anchor="middle" font-weight="700">SEARCH INVENTORY</text><text x="1260" y="294" fill="#5cbbb0" font-family="Segoe UI,Arial" font-size="14" text-anchor="middle" font-weight="700">READ-ONLY</text><text x="1260" y="317" fill="#5cbbb0" font-family="Segoe UI,Arial" font-size="14" text-anchor="middle" font-weight="700">NEVER MOVES FILES</text><rect x="58" y="375" width="1384" height="430" fill="#111b1e" stroke="#304146"/><text x="84" y="418" fill="#e8ebec" font-family="Segoe UI,Arial" font-size="18" font-weight="700">SEARCH ONLY RESULTS</text><rect x="1110" y="394" width="145" height="40" rx="5" fill="#172328" stroke="#405358"/><text x="1182" y="420" fill="#e8ebec" font-family="Segoe UI,Arial" font-size="12" text-anchor="middle">EXPORT RESULTS</text><rect x="1268" y="394" width="145" height="40" rx="5" fill="#172328" stroke="#405358"/><text x="1340" y="420" fill="#e8ebec" font-family="Segoe UI,Arial" font-size="12" text-anchor="middle">CLEAR RESULTS</text><rect x="78" y="458" width="1344" height="54" fill="#172328"/><g fill="#e8ebec" font-family="Segoe UI,Arial" font-size="13" font-weight="700"><text x="98" y="491">TYPE</text><text x="228" y="491">NAME</text><text x="650" y="491">FOLDER</text><text x="1115" y="491">INVENTORY UUID</text></g><g font-family="Segoe UI,Arial" font-size="14"><rect x="78" y="512" width="1344" height="58" fill="#111b1e"/><text x="98" y="548" fill="#5cbbb0">Object</text><text x="228" y="548" fill="#e8ebec">Reborn Knit Shirt - Cream</text><text x="650" y="548" fill="#9eaaae">Clothing / Reborn / Tops</text><text x="1115" y="548" fill="#7f8b8f">c21a…8f3b</text><rect x="78" y="570" width="1344" height="58" fill="#0e171a"/><text x="98" y="606" fill="#5cbbb0">Object</text><text x="228" y="606" fill="#e8ebec">Reborn Shirt Fatpack</text><text x="650" y="606" fill="#9eaaae">Shopping / Unpacked</text><text x="1115" y="606" fill="#7f8b8f">a9e2…63d0</text><rect x="78" y="628" width="1344" height="58" fill="#111b1e"/><text x="98" y="664" fill="#5cbbb0">Wearable</text><text x="228" y="664" fill="#e8ebec">Reborn Oversized Shirt</text><text x="650" y="664" fill="#9eaaae">Clothing / Casual</text><text x="1115" y="664" fill="#7f8b8f">09cb…bd45</text></g><rect x="58" y="823" width="1384" height="34" fill="#0d171a"/><text x="80" y="846" fill="#9eaaae" font-family="Segoe UI,Arial" font-size="13">READY  ·  Firestorm: DETECTED  ·  Search Only stays local and read-only.</text></svg>