<svg xmlns="http://www.w3.org/2000/svg" viewBox="0 0 1724 912" role="img"><rect width="1724" height="912" fill="#0b1112"/><rect x="44" y="40" width="1636" height="832" rx="28" fill="#121a1c" stroke="#2e3e40" stroke-width="3"/><text x="90" y="96" font-family="Arial" font-size="30" fill="#e9e1d5" font-weight="700">CACHE COMPASS</text><text x="92" y="168" font-family="Arial" font-size="24" fill="#c79b51" font-weight="700">INVENTORY REVIEW</text><text x="92" y="207" font-family="Arial" font-size="18" fill="#a9b7b3">Review proposed cleanup candidates before anything moves.</text><rect x="92" y="250" width="1540" height="460" rx="16" fill="#0e1516" stroke="#2f4142"/><g font-family="Arial" font-size="17" fill="#d8d1c7"><text x="126" y="292">KEEP</text><text x="220" y="292">ITEM</text><text x="845" y="292">TYPE</text><text x="1050" y="292">FOLDER</text></g><g stroke="#263537"><line x1="112" y1="315" x2="1610" y2="315"/><line x1="112" y1="385" x2="1610" y2="385"/><line x1="112" y1="455" x2="1610" y2="455"/><line x1="112" y1="525" x2="1610" y2="525"/><line x1="112" y1="595" x2="1610" y2="595"/></g><g fill="#172224" stroke="#587f76" stroke-width="3"><circle cx="150" cy="350" r="15"/><circle cx="150" cy="420" r="15"/><circle cx="150" cy="490" r="15"/><circle cx="150" cy="560" r="15"/></g><g font-family="Arial" font-size="18" fill="#e7e0d6"><text x="220" y="357">Beach House Landmark</text><text x="845" y="357" fill="#88a69d">Landmark</text><text x="1050" y="357" fill="#aeb9b5">Places / Vacations</text><text x="220" y="427">Beach House Landmark (1)</text><text x="845" y="427" fill="#88a69d">Landmark</text><text x="1050" y="427" fill="#aeb9b5">Received Items</text><text x="220" y="497">Event Rules Notecard</text><text x="845" y="497" fill="#88a69d">Notecard</text><text x="1050" y="497" fill="#aeb9b5">Events / 2025</text><text x="220" y="567">Event Rules Notecard copy</text><text x="845" y="567" fill="#88a69d">Notecard</text><text x="1050" y="567" fill="#aeb9b5">Unsorted</text></g><rect x="92" y="752" width="880" height="64" rx="14" fill="#0e1516" stroke="#3a504d"/><text x="124" y="792" font-family="Arial" font-size="17" fill="#9eada9">Protected: no-copy inventory · links · current outfit references · system folders</text><rect x="1315" y="752" width="317" height="64" rx="14" fill="#b78b48"/><text x="1406" y="792" font-family="Arial" font-size="18" font-weight="700" fill="#101617">SAFETY TEST</text></svg>